<?xml version="1.0" encoding="UTF-8"?>
<svg id="Livello_2" data-name="Livello 2" xmlns="http://www.w3.org/2000/svg" viewBox="0 0 45.46 8.62">
  <defs>
    <style>
      .cls-1 {
        fill: #ecefe5;
      }

      .cls-2 {
        fill: #00a77d;
      }
    </style>
  </defs>
  <g id="Livello_1-2" data-name="Livello 1">
    <g>
      <g>
        <g>
          <path class="cls-1" d="M.72,3.87c-.22-.09-.39-.23-.52-.4-.13-.18-.19-.38-.2-.62h.84c.01.16.07.29.17.38.1.09.24.14.42.14s.33-.04.43-.13c.1-.09.16-.2.16-.35,0-.12-.04-.21-.11-.29-.07-.07-.16-.13-.27-.18-.11-.04-.25-.09-.44-.14-.25-.07-.46-.15-.62-.22-.16-.07-.3-.18-.41-.33C.07,1.58.01,1.39.01,1.14.01.91.07.71.19.53c.12-.17.28-.3.49-.4.21-.09.45-.14.72-.14.4,0,.73.1.99.29s.39.47.42.82h-.86c0-.13-.06-.25-.17-.33-.11-.09-.25-.13-.42-.13-.15,0-.28.04-.37.12-.09.08-.14.19-.14.34,0,.1.03.19.1.26.07.07.16.13.26.17.1.04.25.09.44.15.25.07.46.15.62.22.16.07.3.19.42.34.12.15.17.35.17.59,0,.21-.05.4-.16.58-.11.18-.27.32-.48.43-.21.11-.46.16-.75.16-.27,0-.52-.05-.74-.14Z"/>
          <path class="cls-1" d="M4.31.69v.98h1.32v.62h-1.32v1.04h1.49v.64h-2.27V.05h2.27v.64h-1.49Z"/>
          <path class="cls-1" d="M7.29.06v3.92h-.79V.06h.79Z"/>
          <path class="cls-1" d="M10.28,3.98l-1.43-1.75v1.75h-.79V.06h.79v1.76L10.28.06h.95l-1.62,1.94,1.66,1.98h-.99Z"/>
          <path class="cls-1" d="M14.2,3.23h-1.56l-.26.75h-.83L12.96.05h.92l1.41,3.93h-.83l-.26-.75ZM13.98,2.6l-.57-1.64-.57,1.64h1.13Z"/>
        </g>
        <g>
          <path class="cls-1" d="M7.3,4.66v3.92h-.79v-3.92h.79Z"/>
          <path class="cls-1" d="M11.42,8.58h-.79l-1.78-2.69v2.69h-.79v-3.93h.79l1.78,2.7v-2.7h.79v3.93Z"/>
          <path class="cls-1" d="M15.55,8.58h-.79l-1.78-2.69v2.69h-.79v-3.93h.79l1.78,2.7v-2.7h.79v3.93Z"/>
          <path class="cls-1" d="M17.13,8.36c-.31-.17-.55-.41-.73-.72-.18-.31-.27-.65-.27-1.04s.09-.73.27-1.03c.18-.31.42-.54.73-.72s.64-.26,1.01-.26.71.09,1.01.26c.3.17.55.41.72.72.18.31.27.65.27,1.03s-.09.73-.27,1.04c-.18.31-.42.54-.73.72-.31.17-.64.26-1.01.26s-.7-.09-1.01-.26ZM18.77,7.76c.18-.11.32-.26.42-.46.1-.2.15-.43.15-.69s-.05-.49-.15-.69c-.1-.2-.24-.35-.42-.45-.18-.1-.39-.16-.62-.16s-.44.05-.63.16c-.18.1-.32.26-.42.45-.1.2-.15.43-.15.69s.05.49.15.69c.1.2.24.35.42.46.18.11.39.16.63.16s.44-.05.62-.16Z"/>
          <path class="cls-1" d="M24.25,4.66l-1.44,3.92h-.95l-1.44-3.92h.84l1.08,3.12,1.07-3.12h.84Z"/>
          <path class="cls-1" d="M26.49,7.84h-1.56l-.26.75h-.83l1.41-3.93h.92l1.41,3.93h-.83l-.26-.75ZM26.27,7.21l-.57-1.64-.57,1.64h1.13Z"/>
          <path class="cls-1" d="M30.52,4.66v.63h-1.04v3.29h-.79v-3.29h-1.04v-.63h2.88Z"/>
          <path class="cls-1" d="M31.88,4.66v3.92h-.79v-3.92h.79Z"/>
          <path class="cls-1" d="M33.46,8.36c-.31-.17-.55-.41-.73-.72-.18-.31-.27-.65-.27-1.04s.09-.73.27-1.03c.18-.31.42-.54.73-.72.31-.17.64-.26,1.01-.26s.71.09,1.01.26c.31.17.55.41.72.72.18.31.27.65.27,1.03s-.09.73-.27,1.04c-.18.31-.42.54-.73.72s-.64.26-1.01.26-.7-.09-1.01-.26ZM35.1,7.76c.18-.11.32-.26.42-.46.1-.2.15-.43.15-.69s-.05-.49-.15-.69c-.1-.2-.24-.35-.42-.45-.18-.1-.39-.16-.62-.16s-.44.05-.63.16c-.18.1-.32.26-.42.45-.1.2-.15.43-.15.69s.05.49.15.69c.1.2.24.35.42.46.18.11.39.16.63.16s.44-.05.62-.16Z"/>
          <path class="cls-1" d="M40.41,8.58h-.79l-1.78-2.69v2.69h-.79v-3.93h.79l1.78,2.7v-2.7h.79v3.93Z"/>
        </g>
      </g>
      <g>
        <path class="cls-1" d="M44.41,4.2c-.08.15-.19.29-.34.39h-1.28c-.14-.1-.26-.24-.34-.39h.97l-.96-.99c.06-.12.14-.23.24-.31l.62.64.83-.64c.1.09.18.19.24.31l-.8.61.37.38h.43Z"/>
        <path class="cls-2" d="M43.44,5.73c-1.11,0-2.02-.91-2.02-2.02s.91-2.02,2.02-2.02,2.02.91,2.02,2.02-.91,2.02-2.02,2.02ZM43.44,2.12c-.88,0-1.59.71-1.59,1.59s.71,1.59,1.59,1.59,1.59-.71,1.59-1.59-.71-1.59-1.59-1.59Z"/>
      </g>
    </g>
  </g>
</svg>